<svg xmlns="http://www.w3.org/2000/svg" width="4000" height="4000" viewBox="0 0 400 400">
  <defs>
    <style>
      .cls-1 {
        fill: none;
      }

      .cls-2 {
        fill: #29abe2;
      }
    </style>
  </defs>
  <g id="Layer_1" data-name="Layer 1">
    <rect class="cls-1" width="400" height="400"/>
  </g>
  <g id="Layer_2" data-name="Layer 2">
    <path class="cls-2" d="M182.18842,182.18133,232.5808,131.789a75.68362,75.68362,0,0,0-86.66311,15.39437c-27.59647,28.24943-28.47819,74.35735-1.92547,103.59a75.68721,75.68721,0,0,0,109.47247,2.68425L324.741,182.18131a125.934,125.934,0,0,1-47.60816,117.497c-45.43387,35.49932-110.60383,35.02915-155.5785-1.05017A126.00547,126.00547,0,1,1,305.14,130.506l-87.31343,87.31343a25.19994,25.19994,0,0,1-35.6381,0l0,0A25.19994,25.19994,0,0,1,182.18842,182.18133Z"/>
  </g>
</svg>
